HIERARCHY
ROOT Hips
{
	OFFSET 55.837601 -12.817714 84.013298
	CHANNELS 6 Xposition Yposition Zposition Xrotation Yrotation Zrotation
	JOINT spine
	{
		OFFSET 0.000000 -0.342408 5.954384
		CHANNELS 3 Xrotation Yrotation Zrotation
		JOINT spine1
		{
			OFFSET 0.000000 -0.000002 8.856018
			CHANNELS 3 Xrotation Yrotation Zrotation
			JOINT spine2
			{
				OFFSET 0.000000 -0.000001 8.485672
				CHANNELS 3 Xrotation Yrotation Zrotation
				JOINT Neck
				{
					OFFSET 0.000000 -1.038704 21.786301
					CHANNELS 3 Xrotation Yrotation Zrotation
					JOINT Head
					{
						OFFSET 0.000000 -0.000001 6.582199
						CHANNELS 3 Xrotation Yrotation Zrotation
						End Site
						{
							OFFSET 0.000000 5.254357 15.932602
						}
					}
				}
				JOINT RightShoulder
				{
					OFFSET -3.573071 0.497523 9.163864
					CHANNELS 3 Xrotation Yrotation Zrotation
					JOINT RightArm
					{
						OFFSET 0.000000 -0.000002 12.019196
						CHANNELS 3 Xrotation Yrotation Zrotation
						JOINT RightArmRoll
						{
							OFFSET 0.000000 -0.000001 6.067551
							CHANNELS 3 Xrotation Yrotation Zrotation
							JOINT RightForeArm
							{
								OFFSET 0.000000 -0.000003 17.672592
								CHANNELS 3 Xrotation Yrotation Zrotation
								JOINT RightForeArmRoll
								{
									OFFSET 0.000000 -0.000001 6.808716
									CHANNELS 3 Xrotation Yrotation Zrotation
									JOINT RightHand
									{
										OFFSET 0.000000 -0.000003 13.663605
										CHANNELS 3 Xrotation Yrotation Zrotation
										End Site
										{
											OFFSET 0.000000 0.000000 0.100006
										}
									}
								}
							}
						}
					}
				}
				JOINT LeftShoulder
				{
					OFFSET 3.573071 0.497523 9.163864
					CHANNELS 3 Xrotation Yrotation Zrotation
					JOINT LeftArm
					{
						OFFSET 0.000000 -0.000002 12.019196
						CHANNELS 3 Xrotation Yrotation Zrotation
						JOINT LeftArmRoll
						{
							OFFSET 0.000000 -0.000001 6.067551
							CHANNELS 3 Xrotation Yrotation Zrotation
							JOINT LeftForeArm
							{
								OFFSET 0.000000 -0.000003 17.672592
								CHANNELS 3 Xrotation Yrotation Zrotation
								JOINT LeftForeArmRoll
								{
									OFFSET 0.000000 -0.000001 6.808716
									CHANNELS 3 Xrotation Yrotation Zrotation
									JOINT LeftHand
									{
										OFFSET 0.000000 -0.000003 13.663605
										CHANNELS 3 Xrotation Yrotation Zrotation
										End Site
										{
											OFFSET 0.000000 0.000000 0.100006
										}
									}
								}
							}
						}
					}
				}
			}
		}
	}
	JOINT RightUpLeg
	{
		OFFSET -5.277740 0.811858 -0.967796
		CHANNELS 3 Xrotation Yrotation Zrotation
		JOINT RightUpLegRoll
		{
			OFFSET 0.000000 -0.000003 16.021400
			CHANNELS 3 Xrotation Yrotation Zrotation
			JOINT RightLeg
			{
				OFFSET 0.000000 0.000003 -19.840096
				CHANNELS 3 Xrotation Yrotation Zrotation
				JOINT RightLegRoll
				{
					OFFSET 0.000000 -0.000003 19.904999
					CHANNELS 3 Xrotation Yrotation Zrotation
					JOINT RightFoot
					{
						OFFSET 0.000000 -0.000003 16.567497
						CHANNELS 3 Xrotation Yrotation Zrotation
						JOINT RightToeBase
						{
							OFFSET 0.000000 -0.000002 13.849602
							CHANNELS 3 Xrotation Yrotation Zrotation
							End Site
							{
								OFFSET 0.005871 0.773116 6.707275
							}
						}
					}
				}
			}
		}
	}
	JOINT LeftUpLeg
	{
		OFFSET 5.277740 0.811858 -0.967796
		CHANNELS 3 Xrotation Yrotation Zrotation
		JOINT LeftUpLegRoll
		{
			OFFSET 0.000000 -0.000003 16.021500
			CHANNELS 3 Xrotation Yrotation Zrotation
			JOINT LeftLeg
			{
				OFFSET 0.000000 -0.000003 19.839996
				CHANNELS 3 Xrotation Yrotation Zrotation
				JOINT LeftLegRoll
				{
					OFFSET 0.000000 -0.000004 20.089005
					CHANNELS 3 Xrotation Yrotation Zrotation
					JOINT LeftFoot
					{
						OFFSET 0.000000 -0.000003 16.383499
						CHANNELS 3 Xrotation Yrotation Zrotation
						JOINT LeftToeBase
						{
							OFFSET 0.000000 -0.000002 13.849594
							CHANNELS 3 Xrotation Yrotation Zrotation
							End Site
							{
								OFFSET -0.026310 0.773116 6.707275
							}
						}
					}
				}
			}
		}
	}
}
MOTION
Frames: 4
Frame Time: 0.041667
52.524799 -0.514486 83.707802 -4.809058 -2.583256 0.108729 0.940079 0.131678 0.066076 5.882862 0.264695 0.121117 7.527952 0.265985 0.118483 27.051519 11.978735 -3.168043 3.999124 -12.447962 -1.656311 -0.842441 -60.318432 -1.091869 -31.627652 -126.662908 -49.224248 -0.000001 -0.000020 0.000004 -0.032424 3.642769 -1.990679 0.000000 -0.000024 -3.011608 -5.000141 -7.999927 0.000015 -12.491872 60.068823 14.762448 -31.667380 130.497895 51.174882 0.000000 -0.000000 0.000000 -0.025668 -3.641690 1.990869 -0.000003 0.000000 3.011601 -5.000181 7.999917 -0.000002 -3.931337 -175.262121 5.131323 -179.999991 0.000005 -1.045001 169.183745 -4.044104 -0.722960 0.000001 0.000000 0.143831 69.687389 6.875380 2.166197 25.456923 -7.364978 0.000000 -2.362561 -178.481285 1.765948 -0.000005 -0.000004 -1.057080 -11.154629 1.491563 0.487025 0.000001 0.000001 -0.161788 69.815427 -6.850223 -2.179567 25.456952 7.343995 -0.000004 
52.509701 -0.503007 83.705109 -4.752020 -2.575199 0.108292 0.937336 0.130380 0.066067 5.877380 0.262106 0.120798 7.522468 0.263405 0.118120 26.862586 12.013143 -3.148122 3.960197 -12.509505 -1.652091 -0.818956 -60.308781 -1.063259 -31.645294 -126.676568 -49.249588 -0.000002 -0.000020 0.000005 -0.032424 3.642769 -1.990678 -0.000001 -0.000024 -3.011609 -5.000141 -7.999928 0.000016 -12.504025 60.075154 14.777048 -31.693649 130.487212 51.186804 0.000001 0.000000 -0.000000 -0.025667 -3.641691 1.990869 -0.000002 0.000000 3.011602 -5.000182 7.999917 -0.000003 -3.996797 -175.275468 5.110281 -179.999991 0.000005 -1.044003 169.178608 -4.038144 -0.723197 0.000001 -0.000000 0.143830 69.686111 6.875367 2.166175 25.456924 -7.364977 0.000001 -2.439463 -178.487378 1.768045 -0.000004 -0.000004 -1.056100 -11.177932 1.490414 0.488166 0.000001 0.000001 -0.162136 69.817538 -6.850192 -2.179632 25.456952 7.343994 -0.000005 
52.504799 -0.484330 83.702797 -4.695986 -2.567743 0.107637 0.934731 0.129153 0.066052 5.872169 0.259656 0.120416 7.517246 0.260963 0.117689 26.673272 12.049131 -3.127843 3.921744 -12.573327 -1.647479 -0.795956 -60.298221 -1.035111 -31.661212 -126.691868 -49.273920 -0.000000 -0.000020 0.000003 -0.032422 3.642770 -1.990679 -0.000000 -0.000024 -3.011610 -5.000141 -7.999927 0.000018 -12.517047 60.082510 14.792713 -31.719781 130.476489 51.197821 -0.000000 0.000000 -0.000001 -0.025669 -3.641691 1.990867 -0.000001 -0.000000 3.011599 -5.000184 7.999916 -0.000003 -4.061443 -175.287817 5.090203 -179.999991 0.000005 -1.044003 169.172762 -4.033152 -0.722672 0.000001 0.000000 0.143829 69.685060 6.875399 2.166145 25.456923 -7.364976 0.000001 -2.514779 -178.493457 1.770490 -0.000005 -0.000005 -1.055140 -11.200530 1.489316 0.489290 0.000001 0.000001 -0.162476 69.819765 -6.850197 -2.179497 25.456948 7.343995 -0.000005 
52.499500 -0.471418 83.700111 -4.640646 -2.560719 0.106825 0.932215 0.127974 0.066034 5.867147 0.257303 0.119990 7.512227 0.258617 0.117209 26.483743 12.086236 -3.107263 3.883586 -12.638648 -1.642634 -0.773302 -60.287047 -1.007293 -31.676819 -126.707072 -49.298594 -0.000002 -0.000020 0.000002 -0.032422 3.642770 -1.990679 0.000000 -0.000024 -3.011610 -5.000142 -7.999927 0.000017 -12.530693 60.090611 14.809146 -31.746702 130.464960 51.209381 -0.000001 -0.000000 -0.000002 -0.025668 -3.641691 1.990867 -0.000003 0.000000 3.011602 -5.000181 7.999917 -0.000005 -4.125547 -175.299155 5.070795 -179.999991 0.000005 -1.043006 169.166423 -4.028157 -0.723179 0.000001 0.000000 0.143832 69.684213 6.875402 2.166098 25.456923 -7.364978 0.000001 -2.588991 -178.498525 1.773155 -0.000004 -0.000004 -1.054190 -11.222631 1.488261 0.490403 0.000001 0.000001 -0.162809 69.821882 -6.850203 -2.179566 25.456950 7.343995 -0.000005 
